<?xml version="1.0" encoding="UTF-8"?>
<!DOCTYPE svg PUBLIC "-//W3C//DTD SVG 1.1//EN" "http://www.w3.org/Graphics/SVG/1.1/DTD/svg11.dtd">
<!-- Creator: CorelDRAW -->
<svg xmlns="http://www.w3.org/2000/svg" xml:space="preserve" width="1080px" height="1080px" version="1.1" style="shape-rendering:geometricPrecision; text-rendering:geometricPrecision; image-rendering:optimizeQuality; fill-rule:evenodd; clip-rule:evenodd"
viewBox="0 0 1080 1080"
 xmlns:xlink="http://www.w3.org/1999/xlink"
 xmlns:xodm="http://www.corel.com/coreldraw/odm/2003">
 <defs>
  <style type="text/css">
   <![CDATA[
    .fil0 {fill:#D3A150}
   ]]>
  </style>
 </defs>
 <g id="Layer_x0020_1">
  <metadata id="CorelCorpID_0Corel-Layer"/>
  <path class="fil0" d="M525.05 48.11c68.66,-4.39 150.13,12.84 211.22,39.02 33.72,14.44 70.53,34.84 99.08,56.85 8.69,6.71 17.78,13.12 25.95,20.59 1.48,1.36 2.32,1.9 4.12,3.56 6.18,5.69 13.86,11.99 20.11,18.25 8.59,8.6 22.66,22.87 30.14,32.05 4,4.9 10.43,12 14.07,16.98 2.25,3.07 4.46,5.58 6.65,8.64 24.19,33.97 32.36,47.26 51.7,86.48 12.79,25.94 25.27,62.77 32.54,90.32 23.16,87.77 19.82,180.73 -6.83,266.87 -9.61,31.05 -21.57,58.15 -36.35,86.65 -16.4,31.65 -39.52,64.7 -62.6,91.47l-7.22 8.09c-2.32,2.83 -4.97,5.19 -7.29,8.03l-15.55 15.55c-5.18,5.09 -10.61,10.32 -16.12,15.02l-25.34 21.17c-28.58,22.25 -52.89,36.86 -85.85,53.67 -54.25,27.67 -129.18,48.2 -200.71,49.58 -76.75,1.47 -148.07,-14.1 -209.53,-40.63 -14.18,-6.12 -29.41,-13.22 -42.11,-20.55 -31.26,-18.04 -39.15,-23.33 -65.67,-42.99 -1.73,-1.28 -2.54,-2 -4.28,-3.4l-8.7 -7.1c-4.4,-3.29 -8.3,-7.03 -12.37,-10.66l-23.94 -22.54c-1.44,-1.53 -2.31,-2.17 -3.92,-3.73l-22.24 -24.6c-17.42,-21.2 -34.13,-42.97 -48.2,-66.86 -43.33,-73.6 -66.83,-150.01 -70.09,-235.89 -2.69,-70.79 13.15,-147.79 38.48,-205.7 19.04,-43.57 39.19,-78.83 68.67,-116.16 4.7,-5.95 9.43,-11.38 14.1,-16.96 4.51,-5.41 10.65,-11.34 14.64,-15.97 1.3,-1.52 2.63,-2.69 3.92,-4.19 5.54,-6.4 29.36,-28.62 36.1,-33.84l4.2 -3.48c1.57,-1.34 2.53,-2.19 4.12,-3.54 5.41,-4.58 11.37,-8.89 17.34,-13.4 49.91,-37.71 106.09,-63.36 168.36,-80.45 38.41,-10.55 69.68,-13.65 109.4,-16.2zm-5.73 -34.38c-110.15,5.55 -209.29,41.63 -294.54,105.41 -6.5,4.87 -12.43,9.56 -18.5,14.5 -6.32,5.13 -11.75,10.18 -17.64,15.32 -5.93,5.19 -27.21,25.66 -33.41,32.87l-15.43 17.46c-15.67,17.16 -43.24,56.1 -54.78,76.87 -7.37,13.28 -16.47,28.77 -22.57,42.86 -3.3,7.6 -6.83,15.23 -10.19,22.91 -11.9,27.17 -25.5,70.87 -30.68,100.09 -13.91,78.39 -13.39,155.48 7.94,232.77 7.58,27.46 14.4,46.99 25.34,72.46 15.96,37.15 36.48,71.94 60.24,104.34 4.39,5.98 23.06,30.05 29.25,36.44l32.54 33.71c3.16,3 4.32,4.6 8.35,7.89 1.71,1.4 2.57,2.47 4.18,3.93l6.77 5.88c0.94,0.7 1.42,0.93 2.28,1.79 7.88,7.87 33.5,26.39 42.1,32.48 29.9,21.15 62.02,38.68 96.31,53.34 67.35,28.79 142.37,44.23 225.88,41.75 38.44,-1.15 80.96,-7.77 115.83,-17.56 23.22,-6.53 51.99,-16.1 73.64,-26.04 44.12,-20.27 67.2,-33.98 104.78,-61.56 3.24,-2.38 6.21,-4.55 9.2,-7.07l43.81 -38.79c3.46,-3.47 8.68,-7.99 12.51,-12.29l19.54 -21.91c10.34,-10.87 34.22,-44.42 42.23,-56.67 16.66,-25.51 32.97,-55.3 45.33,-85.93 30.43,-75.39 41.62,-137.1 39.44,-220.54 -1.01,-38.41 -7.98,-77.54 -17.3,-112.77 -9.72,-36.73 -28.4,-84.12 -46.59,-117 -14.8,-26.76 -20.99,-35.93 -37.88,-60.84l-32.82 -40.99 -19.98 -21.46 -25.52 -24.09c-1.7,-1.49 -2.58,-1.92 -4.41,-3.73l-22.71 -18.4c-1.65,-1.25 -3.05,-2.38 -4.58,-3.56l-24.68 -17.39c-58.61,-37.75 -117.97,-63.18 -189.29,-77.13 -39.84,-7.78 -81.48,-11.49 -123.99,-9.35z"/>
  <path class="fil0" d="M433.19 281.67c0.42,-1.02 4.4,-6.3 5.33,-7.54l28.07 -38.44c14.59,-20.76 29.66,-41.82 44.09,-62.88 1.95,-2.86 0,0 10.78,-15.98 -21.01,16.54 -41.4,33.13 -60.56,49.96l-50.84 46.2c-1.52,1.41 -2.75,2.47 -4.24,3.89l-12.41 11.93c-3.02,2.69 -5.13,5.62 -7.94,8.3 -12.87,12.31 -12.5,26.47 -18.59,45.32 -4.69,14.5 -14.62,32.15 -22.74,41.38 -3.57,4.05 -7.01,9.06 -10.91,12.96 -1.6,1.6 -2.94,2.29 -3.77,4.32 -0.36,0.87 -0.85,6 -0.7,7.02 0.24,1.56 1.6,4.28 2.38,5.66 5.71,10.13 12.71,20.25 21.15,27.43 1.77,1.51 19.56,12.91 22.03,8.23 0.35,-1.06 -2.5,-10.06 -2.85,-12.95 -1.54,-12.69 10.17,-25.23 19.34,-31.69 14.39,-10.14 23.82,-15.32 42.14,-24.72 -9.46,0.55 -19.74,0.94 -28.69,1.41 1.7,-2.55 9.2,-9.6 11.78,-12.12 3.55,-3.47 8.81,-7.38 13.12,-10.82 8.81,-7.03 18.86,-13.33 29.07,-18.92 27.26,-14.92 53.48,-20.63 86.88,-19.79 -1.55,5.68 -47.64,105.74 -49.99,110.94 -16.66,36.88 -32.53,74.73 -48.52,112.08 -11.96,27.93 -24.51,55.53 -37.18,83.18 -2.13,4.65 -4.34,9.29 -6.24,13.89 -0.87,2.09 -2.85,5.21 -1.05,7.12l42 29.05c4.09,2.69 7.96,5.52 12.23,8.15 6.19,3.8 6.24,-2.29 8.72,-8.28l11.75 -28.49c1.14,-2.85 8.1,-14.42 3.08,-15.43 -0.34,-0.07 -1.79,-0.06 -2.22,-0.06l-56.99 0.06c0.58,-1.62 4.34,-6.12 5.57,-7.5 7.77,-8.77 16.18,-19.77 23.77,-28.88 17.95,-21.57 35.65,-43.14 54.04,-64.34l30.09 -35.63c2.14,-2.55 4,-4.64 6.22,-7.28 4.02,-4.77 7.86,-9.45 12.04,-14.07l24.29 -28.38c2.07,-2.45 3.9,-4.44 6.09,-6.97 2.04,-2.37 4.01,-5.01 6.17,-7.33l15.56 -17.31c2.13,-2.55 7.58,-9.25 9.74,-10.59 -0.48,2.35 -23.14,46.34 -24.91,49.94 -10.25,20.76 -21.27,40.71 -32.08,61.12 -2.29,4.32 -4.06,8.33 -6.41,12.42 -4.63,8.05 -8.37,16.61 -12.87,24.76 -6.71,12.14 -12.71,24.61 -19.72,36.75 -7.95,13.8 -9.29,9.64 23.78,10.27l27.43 0.01c0.28,1.63 -2.19,4.24 -3.22,5.77 -1.4,2.1 -2.46,3.57 -3.83,5.61 -18.03,26.84 -37.4,52.91 -55.88,79.36 -5.36,7.67 -10.44,15.07 -15.85,22.34 -3.09,4.15 -9.2,21.45 -11.23,27.22 -6.5,18.5 -15,36.81 -21.74,55.15 -3.36,9.15 -7.25,17.98 -10.88,27.13 -3.68,9.28 -7.1,18.32 -10.92,27.52 -7.57,18.22 -14.68,36.58 -22,54.9 -7.29,18.26 -14.77,36.28 -21.97,54.47l-16.85 40.83c-4.71,13.67 0,0 -4.71,13.67 8.81,-11.85 0,0 8.81,-11.85l68.84 -97.06c19.55,-27.95 38.02,-56.14 57.48,-84.01l38.47 -55.88c9.82,-13.93 18.85,-28 28.69,-41.83 3.3,-4.63 6.65,-9.41 9.73,-14.08 3.04,-4.62 6.23,-9.29 9.47,-13.89l19.21 -27.95c16.21,-23.2 31.65,-46.99 48.23,-69.92 2.9,-4.01 15.7,-23.52 18.32,-28.61 -2.94,0.03 -52.26,-0.77 -56.94,-0.81l-41 -0.17c0.84,-4.19 3.11,-9.44 4.45,-13.89 4.29,-14.2 9.79,-27.77 14.29,-42 5.93,-18.78 12.69,-37.23 18.84,-56.14 12.15,-37.37 25.09,-74.75 37.85,-111.69 6.43,-18.64 12.56,-36.84 18.79,-55.79 6.14,-18.65 12.9,-37.21 19.01,-55.99 10.56,-32.47 22.6,-65.16 33.14,-97.67 1.06,-3.28 5.06,-11.48 3.73,-14.25 -2.52,-0.67 -7.22,3.34 -9.55,4.66 -9.5,5.36 -18.19,11.48 -27.63,17.2 -6.18,3.75 -12.24,7.68 -18.53,11.37l-37.08 22.72c-6.18,4.01 -12.44,7.44 -18.57,11.33 -24.64,15.66 -49.29,30.44 -74.08,45.97 -6.26,3.92 -109.73,68.51 -111.2,68.9z"/>
 </g>
</svg>
